<svg xmlns="http://www.w3.org/2000/svg" xmlns:xlink="http://www.w3.org/1999/xlink" width="1920" zoomAndPan="magnify" viewBox="0 0 1440 809.999993" height="1080" preserveAspectRatio="xMidYMid meet" version="1.0"><defs><g/><clipPath id="1b9721c31c"><path d="M 787.027344 347.539062 L 798 347.539062 L 798 385 L 787.027344 385 Z M 787.027344 347.539062 " clip-rule="nonzero"/></clipPath><clipPath id="893e1f1e25"><path d="M 693.203125 344.292969 L 705 344.292969 L 705 385 L 693.203125 385 Z M 693.203125 344.292969 " clip-rule="nonzero"/></clipPath><clipPath id="c3b8611820"><path d="M 735 344.292969 L 746.453125 344.292969 L 746.453125 385 L 735 385 Z M 735 344.292969 " clip-rule="nonzero"/></clipPath><clipPath id="3b82d4c10c"><path d="M 715 353 L 727 353 L 727 393.042969 L 715 393.042969 Z M 715 353 " clip-rule="nonzero"/></clipPath><clipPath id="db2dcac34e"><path d="M 666.472656 315.183594 L 773.722656 315.183594 L 773.722656 422.433594 L 666.472656 422.433594 Z M 666.472656 315.183594 " clip-rule="nonzero"/></clipPath></defs><g clip-path="url(#1b9721c31c)"><path fill="#ffffff" d="M 792.519531 347.539062 L 791.75 347.539062 L 791.75 352.351562 L 787.03125 352.351562 L 787.03125 379.886719 L 791.75 379.886719 L 791.75 384.699219 L 792.519531 384.699219 L 792.519531 379.886719 L 797.234375 379.886719 L 797.234375 352.351562 L 792.519531 352.351562 Z M 792.519531 347.539062 " fill-opacity="1" fill-rule="nonzero"/></g><g clip-path="url(#893e1f1e25)"><path fill="#f9fafa" d="M 699.085938 344.292969 L 698.261719 344.292969 L 698.261719 349.449219 L 693.207031 349.449219 L 693.207031 378.945312 L 698.261719 378.945312 L 698.261719 384.101562 L 699.085938 384.101562 L 699.085938 378.945312 L 704.140625 378.945312 L 704.140625 349.449219 L 699.085938 349.449219 Z M 699.085938 344.292969 " fill-opacity="1" fill-rule="nonzero"/></g><g clip-path="url(#c3b8611820)"><path fill="#f9fafa" d="M 741.730469 349.449219 L 741.730469 344.292969 L 740.90625 344.292969 L 740.90625 349.449219 L 735.855469 349.449219 L 735.855469 378.945312 L 740.90625 378.945312 L 740.90625 384.101562 L 741.730469 384.101562 L 741.730469 378.945312 L 746.785156 378.945312 L 746.785156 349.449219 Z M 741.730469 349.449219 " fill-opacity="1" fill-rule="nonzero"/></g><g clip-path="url(#3b82d4c10c)"><path fill="#f9fafa" d="M 721.226562 353.324219 L 720.398438 353.324219 L 720.398438 358.6875 L 715.554688 358.6875 L 715.554688 387.769531 L 720.402344 387.769531 L 720.402344 393.132812 L 721.226562 393.132812 L 721.226562 387.769531 L 726.074219 387.769531 L 726.074219 358.6875 L 721.226562 358.6875 Z M 725.246094 359.511719 L 725.246094 386.945312 L 716.378906 386.945312 L 716.378906 359.511719 Z M 725.246094 359.511719 " fill-opacity="1" fill-rule="nonzero"/></g><g clip-path="url(#db2dcac34e)"><path fill="#ce9f41" d="M 720.097656 422.417969 L 666.492188 368.808594 L 720.097656 315.203125 L 773.703125 368.808594 Z M 667.773438 368.808594 L 720.097656 421.132812 L 772.421875 368.808594 L 720.097656 316.488281 Z M 667.773438 368.808594 " fill-opacity="1" fill-rule="nonzero"/></g><g fill="#ffffff" fill-opacity="1"><g transform="translate(806.01312, 379.465549)"><g><path d="M 1.34375 0 L 1.34375 -0.375 L 2.609375 -0.765625 C 3.066406 -0.890625 3.394531 -1.132812 3.59375 -1.5 C 3.800781 -1.875 3.90625 -2.316406 3.90625 -2.828125 L 3.90625 -21.25 C 3.625 -21.863281 3.398438 -22.320312 3.234375 -22.625 C 3.066406 -22.925781 2.878906 -23.1875 2.671875 -23.40625 C 2.472656 -23.625 2.195312 -23.898438 1.84375 -24.234375 L 1.1875 -24.875 L 1.1875 -25.265625 L 7.96875 -25.265625 L 20.671875 -7.921875 L 20.671875 -22.359375 C 20.671875 -22.867188 20.585938 -23.328125 20.421875 -23.734375 C 20.253906 -24.140625 19.914062 -24.40625 19.40625 -24.53125 L 18.140625 -24.875 L 18.140625 -25.265625 L 23.625 -25.265625 L 23.625 -24.875 L 22.578125 -24.53125 C 22.117188 -24.382812 21.835938 -24.117188 21.734375 -23.734375 C 21.640625 -23.347656 21.59375 -22.898438 21.59375 -22.390625 L 21.59375 0.109375 L 19.453125 0.109375 L 4.828125 -19.984375 L 4.828125 -2.828125 C 4.828125 -2.316406 4.898438 -1.882812 5.046875 -1.53125 C 5.203125 -1.175781 5.523438 -0.921875 6.015625 -0.765625 L 7.15625 -0.375 L 7.15625 0 Z M 1.34375 0 "/></g></g></g><g fill="#ffffff" fill-opacity="1"><g transform="translate(839.543114, 379.465549)"><g><path d="M 10.875 0.109375 L 2.671875 -22.703125 C 2.492188 -23.210938 2.257812 -23.613281 1.96875 -23.90625 C 1.675781 -24.195312 1.273438 -24.421875 0.765625 -24.578125 L -0.15625 -24.875 L -0.15625 -25.265625 L 10.875 -25.265625 L 10.875 -24.875 L 9.6875 -24.53125 C 9.09375 -24.382812 8.765625 -24.117188 8.703125 -23.734375 C 8.640625 -23.347656 8.695312 -22.875 8.875 -22.3125 L 14.546875 -5.515625 L 20.25 -22.359375 C 20.457031 -22.941406 20.550781 -23.425781 20.53125 -23.8125 C 20.519531 -24.195312 20.222656 -24.460938 19.640625 -24.609375 L 18.640625 -24.875 L 18.640625 -25.265625 L 24 -25.265625 L 24 -24.875 L 22.96875 -24.578125 C 22.476562 -24.453125 22.128906 -24.226562 21.921875 -23.90625 C 21.722656 -23.582031 21.535156 -23.164062 21.359375 -22.65625 L 13.703125 0.109375 Z M 10.875 0.109375 "/></g></g></g><g fill="#ffffff" fill-opacity="1"><g transform="translate(872.269367, 379.465549)"><g><path d="M 0.84375 0 L 0.84375 -0.375 L 1.71875 -0.734375 C 2.15625 -0.910156 2.457031 -1.144531 2.625 -1.4375 C 2.789062 -1.726562 2.875 -2.128906 2.875 -2.640625 L 2.875 -22.625 C 2.875 -23.132812 2.800781 -23.535156 2.65625 -23.828125 C 2.519531 -24.117188 2.207031 -24.351562 1.71875 -24.53125 L 0.84375 -24.875 L 0.84375 -25.265625 L 19.171875 -25.265625 L 19.40625 -19.375 L 19.03125 -19.375 L 17.375 -22.96875 C 17.144531 -23.425781 16.898438 -23.796875 16.640625 -24.078125 C 16.390625 -24.359375 16.007812 -24.5 15.5 -24.5 L 8.609375 -24.5 L 8.609375 -13.4375 L 12.703125 -13.4375 C 13.210938 -13.4375 13.601562 -13.566406 13.875 -13.828125 C 14.144531 -14.097656 14.378906 -14.460938 14.578125 -14.921875 L 15.34375 -16.453125 L 15.734375 -16.453125 L 15.734375 -9.5625 L 15.34375 -9.5625 L 14.578125 -11.171875 C 14.347656 -11.628906 14.101562 -11.992188 13.84375 -12.265625 C 13.59375 -12.535156 13.210938 -12.671875 12.703125 -12.671875 L 8.609375 -12.671875 L 8.609375 -0.765625 L 16.34375 -0.765625 C 16.851562 -0.765625 17.25 -0.894531 17.53125 -1.15625 C 17.8125 -1.425781 18.039062 -1.804688 18.21875 -2.296875 L 19.796875 -5.890625 L 20.171875 -5.890625 L 19.9375 0 Z M 0.84375 0 "/></g></g></g><g fill="#ffffff" fill-opacity="1"><g transform="translate(902.048557, 379.465549)"><g><path d="M 9.078125 0.6875 C 7.671875 0.6875 6.238281 0.515625 4.78125 0.171875 C 3.332031 -0.171875 2.117188 -0.625 1.140625 -1.1875 L 1.34375 -6.390625 L 1.71875 -6.390625 L 2.90625 -3.90625 C 3.257812 -3.1875 3.640625 -2.550781 4.046875 -2 C 4.460938 -1.457031 5.023438 -1.035156 5.734375 -0.734375 C 6.242188 -0.472656 6.734375 -0.296875 7.203125 -0.203125 C 7.679688 -0.117188 8.210938 -0.078125 8.796875 -0.078125 C 10.359375 -0.078125 11.59375 -0.5 12.5 -1.34375 C 13.40625 -2.1875 13.859375 -3.269531 13.859375 -4.59375 C 13.859375 -5.84375 13.550781 -6.816406 12.9375 -7.515625 C 12.320312 -8.222656 11.335938 -8.90625 9.984375 -9.5625 L 8.421875 -10.265625 C 6.222656 -11.234375 4.503906 -12.347656 3.265625 -13.609375 C 2.035156 -14.867188 1.421875 -16.546875 1.421875 -18.640625 C 1.421875 -20.148438 1.804688 -21.453125 2.578125 -22.546875 C 3.359375 -23.640625 4.441406 -24.476562 5.828125 -25.0625 C 7.222656 -25.65625 8.851562 -25.953125 10.71875 -25.953125 C 12.070312 -25.953125 13.351562 -25.769531 14.5625 -25.40625 C 15.78125 -25.050781 16.832031 -24.570312 17.71875 -23.96875 L 17.5 -19.375 L 17.109375 -19.375 L 15.546875 -22.234375 C 15.109375 -23.128906 14.671875 -23.757812 14.234375 -24.125 C 13.804688 -24.5 13.3125 -24.765625 12.75 -24.921875 C 12.414062 -25.023438 12.109375 -25.09375 11.828125 -25.125 C 11.546875 -25.164062 11.1875 -25.1875 10.75 -25.1875 C 9.445312 -25.1875 8.347656 -24.8125 7.453125 -24.0625 C 6.566406 -23.3125 6.125 -22.296875 6.125 -21.015625 C 6.125 -19.710938 6.46875 -18.671875 7.15625 -17.890625 C 7.84375 -17.117188 8.851562 -16.425781 10.1875 -15.8125 L 11.9375 -15.046875 C 14.394531 -13.972656 16.15625 -12.828125 17.21875 -11.609375 C 18.289062 -10.398438 18.828125 -8.835938 18.828125 -6.921875 C 18.828125 -4.679688 17.976562 -2.851562 16.28125 -1.4375 C 14.59375 -0.0195312 12.191406 0.6875 9.078125 0.6875 Z M 9.078125 0.6875 "/></g></g></g><g fill="#ffffff" fill-opacity="1"><g transform="translate(930.526457, 379.465549)"><g><path d="M 5.96875 0 L 5.96875 -0.375 L 7.546875 -0.765625 C 8.585938 -0.992188 9.109375 -1.628906 9.109375 -2.671875 L 9.109375 -24.5 L 5.859375 -24.5 C 4.910156 -24.5 4.234375 -24.25 3.828125 -23.75 C 3.421875 -23.25 2.988281 -22.566406 2.53125 -21.703125 L 1.140625 -19.03125 L 0.765625 -19.03125 L 0.953125 -25.265625 L 23.046875 -25.265625 L 23.203125 -19.03125 L 22.8125 -19.03125 L 21.4375 -21.703125 C 21 -22.566406 20.578125 -23.25 20.171875 -23.75 C 19.765625 -24.25 19.085938 -24.5 18.140625 -24.5 L 14.890625 -24.5 L 14.890625 -2.671875 C 14.890625 -1.628906 15.410156 -0.992188 16.453125 -0.765625 L 18.03125 -0.375 L 18.03125 0 Z M 5.96875 0 "/></g></g></g><g fill="#ffffff" fill-opacity="1"><g transform="translate(963.061345, 379.465549)"><g><path d="M 0.84375 0 L 0.84375 -0.375 L 1.609375 -0.6875 C 2.117188 -0.863281 2.457031 -1.101562 2.625 -1.40625 C 2.789062 -1.71875 2.875 -2.128906 2.875 -2.640625 L 2.875 -22.625 C 2.875 -23.132812 2.796875 -23.539062 2.640625 -23.84375 C 2.484375 -24.15625 2.140625 -24.398438 1.609375 -24.578125 L 0.84375 -24.875 L 0.84375 -25.265625 L 10.6875 -25.265625 L 10.6875 -24.875 L 9.921875 -24.578125 C 9.410156 -24.398438 9.070312 -24.15625 8.90625 -23.84375 C 8.738281 -23.539062 8.65625 -23.132812 8.65625 -22.625 L 8.65625 -2.640625 C 8.65625 -2.128906 8.738281 -1.726562 8.90625 -1.4375 C 9.070312 -1.144531 9.410156 -0.894531 9.921875 -0.6875 L 10.6875 -0.375 L 10.6875 0 Z M 0.84375 0 "/></g></g></g><g fill="#ffffff" fill-opacity="1"><g transform="translate(983.119071, 379.465549)"><g><path d="M 0.765625 0 L 0.765625 -0.375 L 1.53125 -0.65625 C 2.394531 -0.9375 2.828125 -1.660156 2.828125 -2.828125 L 2.828125 -22.4375 C 2.828125 -22.945312 2.769531 -23.351562 2.65625 -23.65625 C 2.539062 -23.957031 2.242188 -24.210938 1.765625 -24.421875 L 0.765625 -24.875 L 0.765625 -25.265625 L 8.15625 -25.265625 L 15.234375 -6.734375 L 21.890625 -25.265625 L 29.4375 -25.265625 L 29.4375 -24.875 L 28.828125 -24.65625 C 28.335938 -24.476562 28.003906 -24.226562 27.828125 -23.90625 C 27.648438 -23.582031 27.5625 -23.164062 27.5625 -22.65625 L 27.5625 -2.640625 C 27.5625 -2.128906 27.625 -1.734375 27.75 -1.453125 C 27.875 -1.171875 28.179688 -0.929688 28.671875 -0.734375 L 29.4375 -0.375 L 29.4375 0 L 19.90625 0 L 19.90625 -0.375 L 20.703125 -0.734375 C 21.191406 -0.929688 21.5 -1.171875 21.625 -1.453125 C 21.75 -1.734375 21.8125 -2.128906 21.8125 -2.640625 L 21.8125 -11.25 L 21.890625 -22.203125 L 13.890625 0 L 11.984375 0 L 3.640625 -21.9375 L 3.75 -12.40625 L 3.75 -2.75 C 3.75 -2.1875 3.832031 -1.734375 4 -1.390625 C 4.164062 -1.046875 4.488281 -0.800781 4.96875 -0.65625 L 5.8125 -0.375 L 5.8125 0 Z M 0.765625 0 "/></g></g></g><g fill="#ffffff" fill-opacity="1"><g transform="translate(1021.930803, 379.465549)"><g><path d="M 0.84375 0 L 0.84375 -0.375 L 1.71875 -0.734375 C 2.15625 -0.910156 2.457031 -1.144531 2.625 -1.4375 C 2.789062 -1.726562 2.875 -2.128906 2.875 -2.640625 L 2.875 -22.625 C 2.875 -23.132812 2.800781 -23.535156 2.65625 -23.828125 C 2.519531 -24.117188 2.207031 -24.351562 1.71875 -24.53125 L 0.84375 -24.875 L 0.84375 -25.265625 L 19.171875 -25.265625 L 19.40625 -19.375 L 19.03125 -19.375 L 17.375 -22.96875 C 17.144531 -23.425781 16.898438 -23.796875 16.640625 -24.078125 C 16.390625 -24.359375 16.007812 -24.5 15.5 -24.5 L 8.609375 -24.5 L 8.609375 -13.4375 L 12.703125 -13.4375 C 13.210938 -13.4375 13.601562 -13.566406 13.875 -13.828125 C 14.144531 -14.097656 14.378906 -14.460938 14.578125 -14.921875 L 15.34375 -16.453125 L 15.734375 -16.453125 L 15.734375 -9.5625 L 15.34375 -9.5625 L 14.578125 -11.171875 C 14.347656 -11.628906 14.101562 -11.992188 13.84375 -12.265625 C 13.59375 -12.535156 13.210938 -12.671875 12.703125 -12.671875 L 8.609375 -12.671875 L 8.609375 -0.765625 L 16.34375 -0.765625 C 16.851562 -0.765625 17.25 -0.894531 17.53125 -1.15625 C 17.8125 -1.425781 18.039062 -1.804688 18.21875 -2.296875 L 19.796875 -5.890625 L 20.171875 -5.890625 L 19.9375 0 Z M 0.84375 0 "/></g></g></g><g fill="#ffffff" fill-opacity="1"><g transform="translate(1051.709999, 379.465549)"><g><path d="M 1.34375 0 L 1.34375 -0.375 L 2.609375 -0.765625 C 3.066406 -0.890625 3.394531 -1.132812 3.59375 -1.5 C 3.800781 -1.875 3.90625 -2.316406 3.90625 -2.828125 L 3.90625 -21.25 C 3.625 -21.863281 3.398438 -22.320312 3.234375 -22.625 C 3.066406 -22.925781 2.878906 -23.1875 2.671875 -23.40625 C 2.472656 -23.625 2.195312 -23.898438 1.84375 -24.234375 L 1.1875 -24.875 L 1.1875 -25.265625 L 7.96875 -25.265625 L 20.671875 -7.921875 L 20.671875 -22.359375 C 20.671875 -22.867188 20.585938 -23.328125 20.421875 -23.734375 C 20.253906 -24.140625 19.914062 -24.40625 19.40625 -24.53125 L 18.140625 -24.875 L 18.140625 -25.265625 L 23.625 -25.265625 L 23.625 -24.875 L 22.578125 -24.53125 C 22.117188 -24.382812 21.835938 -24.117188 21.734375 -23.734375 C 21.640625 -23.347656 21.59375 -22.898438 21.59375 -22.390625 L 21.59375 0.109375 L 19.453125 0.109375 L 4.828125 -19.984375 L 4.828125 -2.828125 C 4.828125 -2.316406 4.898438 -1.882812 5.046875 -1.53125 C 5.203125 -1.175781 5.523438 -0.921875 6.015625 -0.765625 L 7.15625 -0.375 L 7.15625 0 Z M 1.34375 0 "/></g></g></g><g fill="#ffffff" fill-opacity="1"><g transform="translate(1085.239996, 379.465549)"><g><path d="M 5.96875 0 L 5.96875 -0.375 L 7.546875 -0.765625 C 8.585938 -0.992188 9.109375 -1.628906 9.109375 -2.671875 L 9.109375 -24.5 L 5.859375 -24.5 C 4.910156 -24.5 4.234375 -24.25 3.828125 -23.75 C 3.421875 -23.25 2.988281 -22.566406 2.53125 -21.703125 L 1.140625 -19.03125 L 0.765625 -19.03125 L 0.953125 -25.265625 L 23.046875 -25.265625 L 23.203125 -19.03125 L 22.8125 -19.03125 L 21.4375 -21.703125 C 21 -22.566406 20.578125 -23.25 20.171875 -23.75 C 19.765625 -24.25 19.085938 -24.5 18.140625 -24.5 L 14.890625 -24.5 L 14.890625 -2.671875 C 14.890625 -1.628906 15.410156 -0.992188 16.453125 -0.765625 L 18.03125 -0.375 L 18.03125 0 Z M 5.96875 0 "/></g></g></g><g fill="#ffffff" fill-opacity="1"><g transform="translate(569.948747, 384.84925)"><g><path d="M 1.921875 0 L 1.921875 -0.546875 L 3.734375 -1.09375 C 4.390625 -1.28125 4.863281 -1.640625 5.15625 -2.171875 C 5.457031 -2.703125 5.609375 -3.332031 5.609375 -4.0625 L 5.609375 -30.484375 C 5.203125 -31.367188 4.878906 -32.03125 4.640625 -32.46875 C 4.398438 -32.90625 4.132812 -33.28125 3.84375 -33.59375 C 3.550781 -33.90625 3.148438 -34.300781 2.640625 -34.78125 L 1.703125 -35.703125 L 1.703125 -36.265625 L 11.421875 -36.265625 L 29.671875 -11.375 L 29.671875 -32.078125 C 29.671875 -32.816406 29.550781 -33.476562 29.3125 -34.0625 C 29.070312 -34.644531 28.585938 -35.03125 27.859375 -35.21875 L 26.046875 -35.703125 L 26.046875 -36.265625 L 33.890625 -36.265625 L 33.890625 -35.703125 L 32.40625 -35.21875 C 31.75 -35 31.347656 -34.613281 31.203125 -34.0625 C 31.054688 -33.507812 30.984375 -32.867188 30.984375 -32.140625 L 30.984375 0.171875 L 27.90625 0.171875 L 6.921875 -28.671875 L 6.921875 -4.0625 C 6.921875 -3.332031 7.03125 -2.707031 7.25 -2.1875 C 7.46875 -1.675781 7.925781 -1.3125 8.625 -1.09375 L 10.265625 -0.546875 L 10.265625 0 Z M 1.921875 0 "/></g></g></g><g fill="#ffffff" fill-opacity="1"><g transform="translate(618.065793, 384.84925)"><g><path d="M 8.5625 0 L 8.5625 -0.546875 L 10.828125 -1.09375 C 12.328125 -1.425781 13.078125 -2.34375 13.078125 -3.84375 L 13.078125 -35.15625 L 8.40625 -35.15625 C 7.050781 -35.15625 6.078125 -34.796875 5.484375 -34.078125 C 4.898438 -33.367188 4.28125 -32.394531 3.625 -31.15625 L 1.640625 -27.296875 L 1.09375 -27.296875 L 1.375 -36.265625 L 33.078125 -36.265625 L 33.296875 -27.296875 L 32.75 -27.296875 L 30.765625 -31.15625 C 30.140625 -32.394531 29.535156 -33.367188 28.953125 -34.078125 C 28.367188 -34.796875 27.398438 -35.15625 26.046875 -35.15625 L 21.375 -35.15625 L 21.375 -3.84375 C 21.375 -2.34375 22.125 -1.425781 23.625 -1.09375 L 25.875 -0.546875 L 25.875 0 Z M 8.5625 0 "/></g></g></g></svg>