<svg xmlns="http://www.w3.org/2000/svg" xmlns:xlink="http://www.w3.org/1999/xlink" width="500" zoomAndPan="magnify" viewBox="0 0 375 374.999991" height="500" preserveAspectRatio="xMidYMid meet" version="1.0"><defs><g/><clipPath id="16c1a18aab"><path d="M 264.875 187.054688 L 269 187.054688 L 269 201 L 264.875 201 Z M 264.875 187.054688 " clip-rule="nonzero"/></clipPath><clipPath id="630c6fa58d"><path d="M 170.574219 173.058594 L 182 173.058594 L 182 213 L 170.574219 213 Z M 170.574219 173.058594 " clip-rule="nonzero"/></clipPath><clipPath id="c7e74215a4"><path d="M 213 173.058594 L 223.824219 173.058594 L 223.824219 213 L 213 213 Z M 213 173.058594 " clip-rule="nonzero"/></clipPath><clipPath id="d19a95e20a"><path d="M 192 182 L 204 182 L 204 221.808594 L 192 221.808594 Z M 192 182 " clip-rule="nonzero"/></clipPath><clipPath id="7cf3acab9f"><path d="M 143.84375 141.808594 L 251.09375 141.808594 L 251.09375 249.058594 L 143.84375 249.058594 Z M 143.84375 141.808594 " clip-rule="nonzero"/></clipPath></defs><g clip-path="url(#16c1a18aab)"><path fill="#ffffff" d="M 266.871094 187.054688 L 266.589844 187.054688 L 266.589844 188.800781 L 264.878906 188.800781 L 264.878906 198.804688 L 266.589844 198.804688 L 266.589844 200.550781 L 266.871094 200.550781 L 266.871094 198.804688 L 268.585938 198.804688 L 268.585938 188.800781 L 266.871094 188.800781 Z M 266.871094 187.054688 " fill-opacity="1" fill-rule="nonzero"/></g><g clip-path="url(#630c6fa58d)"><path fill="#ff0625" d="M 176.457031 173.058594 L 175.632812 173.058594 L 175.632812 178.214844 L 170.578125 178.214844 L 170.578125 207.710938 L 175.632812 207.710938 L 175.632812 212.867188 L 176.457031 212.867188 L 176.457031 207.710938 L 181.507812 207.710938 L 181.507812 178.214844 L 176.457031 178.214844 Z M 176.457031 173.058594 " fill-opacity="1" fill-rule="nonzero"/></g><g clip-path="url(#c7e74215a4)"><path fill="#ff0625" d="M 219.101562 178.214844 L 219.101562 173.058594 L 218.277344 173.058594 L 218.277344 178.214844 L 213.222656 178.214844 L 213.222656 207.710938 L 218.277344 207.710938 L 218.277344 212.867188 L 219.101562 212.867188 L 219.101562 207.710938 L 224.15625 207.710938 L 224.15625 178.214844 Z M 219.101562 178.214844 " fill-opacity="1" fill-rule="nonzero"/></g><g clip-path="url(#d19a95e20a)"><path fill="#ff0625" d="M 198.59375 182.089844 L 197.769531 182.089844 L 197.769531 187.449219 L 192.921875 187.449219 L 192.921875 216.53125 L 197.769531 216.53125 L 197.769531 221.894531 L 198.597656 221.894531 L 198.597656 216.53125 L 203.445312 216.53125 L 203.445312 187.449219 L 198.59375 187.449219 Z M 202.617188 188.273438 L 202.617188 215.707031 L 193.746094 215.707031 L 193.746094 188.273438 Z M 202.617188 188.273438 " fill-opacity="1" fill-rule="nonzero"/></g><g clip-path="url(#7cf3acab9f)"><path fill="#ce9f41" d="M 197.46875 249.042969 L 143.859375 195.433594 L 197.46875 141.828125 L 251.074219 195.433594 Z M 145.144531 195.433594 L 197.46875 247.757812 L 249.789062 195.433594 L 197.46875 143.109375 Z M 145.144531 195.433594 " fill-opacity="1" fill-rule="nonzero"/></g><g fill="#ffffff" fill-opacity="1"><g transform="translate(271.455591, 197.638532)"><g><path d="M 0.800781 -7.054688 L 0.800781 0 L 1.542969 0 L 1.542969 -6.148438 L 5.128906 0 L 5.992188 0 L 5.992188 -7.054688 L 5.253906 -7.054688 L 5.253906 -1.304688 L 1.914062 -7.054688 Z M 0.800781 -7.054688 "/></g></g></g><g fill="#ffffff" fill-opacity="1"><g transform="translate(280.529692, 197.638532)"><g><path d="M 0.0703125 -7.054688 L 2.457031 0 L 3.300781 0 L 5.683594 -7.054688 L 4.914062 -7.054688 L 2.960938 -1.234375 L 0.996094 -7.054688 Z M 0.0703125 -7.054688 "/></g></g></g><g fill="#ffffff" fill-opacity="1"><g transform="translate(288.576442, 197.638532)"><g><path d="M 0.875 -7.054688 L 0.875 0 L 5.4375 0 L 5.4375 -0.761719 L 1.757812 -0.761719 L 1.757812 -3.339844 L 4.59375 -3.339844 L 4.59375 -4.050781 L 1.757812 -4.050781 L 1.757812 -6.292969 L 5.335938 -6.292969 L 5.335938 -7.054688 Z M 0.875 -7.054688 "/></g></g></g><g fill="#ffffff" fill-opacity="1"><g transform="translate(296.623193, 197.638532)"><g><path d="M 3.1875 -7.15625 C 1.820312 -7.15625 0.792969 -6.457031 0.792969 -5.210938 C 0.792969 -4.359375 1.347656 -3.648438 2.375 -3.402344 L 3.855469 -3.042969 C 4.625 -2.859375 5.015625 -2.46875 5.015625 -1.902344 C 5.015625 -1.132812 4.378906 -0.648438 3.320312 -0.648438 C 2.261719 -0.648438 1.492188 -1.171875 1.234375 -2.078125 L 0.441406 -1.902344 C 0.90625 -0.535156 1.859375 0.101562 3.300781 0.101562 C 5.039062 0.101562 5.933594 -0.832031 5.933594 -2.015625 C 5.933594 -2.917969 5.347656 -3.609375 4.371094 -3.855469 L 2.539062 -4.316406 C 2.035156 -4.441406 1.65625 -4.75 1.65625 -5.335938 C 1.65625 -6.023438 2.394531 -6.457031 3.167969 -6.457031 C 3.9375 -6.457031 4.75 -5.953125 4.894531 -5.210938 L 5.695312 -5.429688 C 5.316406 -6.527344 4.421875 -7.15625 3.1875 -7.15625 Z M 3.1875 -7.15625 "/></g></g></g><g fill="#ffffff" fill-opacity="1"><g transform="translate(305.286353, 197.638532)"><g><path d="M 0.125 -7.054688 L 0.125 -6.28125 L 2.128906 -6.28125 L 2.128906 0 L 3.011719 0 L 3.011719 -6.28125 L 5.015625 -6.28125 L 5.015625 -7.054688 Z M 0.125 -7.054688 "/></g></g></g><g fill="#ffffff" fill-opacity="1"><g transform="translate(312.716684, 197.638532)"><g><path d="M 0.894531 -7.054688 L 0.894531 0 L 1.777344 0 L 1.777344 -7.054688 Z M 0.894531 -7.054688 "/></g></g></g><g fill="#ffffff" fill-opacity="1"><g transform="translate(317.681366, 197.638532)"><g><path d="M 0.8125 -7.054688 L 0.8125 0 L 1.550781 0 L 1.550781 -6.160156 L 1.59375 -6.160156 L 3.875 0 L 4.472656 0 L 6.703125 -6.160156 L 6.746094 -6.160156 L 6.746094 0 L 7.628906 0 L 7.628906 -7.054688 L 6.332031 -7.054688 L 4.257812 -1.410156 L 2.128906 -7.054688 Z M 0.8125 -7.054688 "/></g></g></g><g fill="#ffffff" fill-opacity="1"><g transform="translate(328.399239, 197.638532)"><g><path d="M 0.875 -7.054688 L 0.875 0 L 5.4375 0 L 5.4375 -0.761719 L 1.757812 -0.761719 L 1.757812 -3.339844 L 4.59375 -3.339844 L 4.59375 -4.050781 L 1.757812 -4.050781 L 1.757812 -6.292969 L 5.335938 -6.292969 L 5.335938 -7.054688 Z M 0.875 -7.054688 "/></g></g></g><g fill="#ffffff" fill-opacity="1"><g transform="translate(336.445991, 197.638532)"><g><path d="M 0.800781 -7.054688 L 0.800781 0 L 1.542969 0 L 1.542969 -6.148438 L 5.128906 0 L 5.992188 0 L 5.992188 -7.054688 L 5.253906 -7.054688 L 5.253906 -1.304688 L 1.914062 -7.054688 Z M 0.800781 -7.054688 "/></g></g></g><g fill="#ffffff" fill-opacity="1"><g transform="translate(345.520094, 197.638532)"><g><path d="M 0.125 -7.054688 L 0.125 -6.28125 L 2.128906 -6.28125 L 2.128906 0 L 3.011719 0 L 3.011719 -6.28125 L 5.015625 -6.28125 L 5.015625 -7.054688 Z M 0.125 -7.054688 "/></g></g></g><g fill="#ffffff" fill-opacity="1"><g transform="translate(78.77741, 207.318078)"><g><path d="M 22.164062 0.304688 L 22.660156 0.304688 L 22.660156 -21.933594 C 22.660156 -25.074219 23.007812 -25.953125 24.191406 -26.296875 L 24.191406 -26.796875 L 19.371094 -26.796875 L 19.371094 -26.296875 C 21.09375 -25.839844 22.011719 -24.765625 22.011719 -20.402344 L 22.011719 -5.128906 L 5.28125 -26.796875 L 1.53125 -26.796875 L 1.53125 -26.296875 C 3.0625 -25.953125 3.523438 -25.074219 3.523438 -21.933594 L 3.523438 -4.863281 C 3.523438 -1.722656 3.140625 -0.84375 1.992188 -0.496094 L 1.992188 0 L 6.777344 0 L 6.777344 -0.496094 C 5.054688 -0.957031 4.132812 -2.027344 4.132812 -6.394531 L 4.132812 -23.160156 Z M 22.164062 0.304688 "/></g></g></g><g fill="#ffffff" fill-opacity="1"><g transform="translate(113.034607, 207.318078)"><g><path d="M 7.617188 0 L 13.855469 0 L 13.855469 -0.496094 C 12.671875 -0.84375 12.324219 -1.722656 12.324219 -4.863281 L 12.324219 -26.183594 L 14.125 -26.183594 C 17.570312 -26.183594 19.0625 -25.265625 20.363281 -22.507812 L 20.785156 -22.585938 L 20.554688 -26.796875 L 0.84375 -26.796875 L 0.613281 -22.585938 L 1.035156 -22.507812 C 2.335938 -25.265625 3.828125 -26.183594 7.273438 -26.183594 L 9.148438 -26.183594 L 9.148438 -4.863281 C 9.148438 -1.722656 8.804688 -0.84375 7.617188 -0.496094 Z M 7.617188 0 "/></g></g></g></svg>